<mxfile host="65bd71144e">
    <diagram id="6EXt89o7fHejoy0miyVt" name="Page-1">
        <mxGraphModel dx="802" dy="608" grid="1" gridSize="10" guides="1" tooltips="1" connect="1" arrows="1" fold="1" page="1" pageScale="1" pageWidth="850" pageHeight="1100" math="0" shadow="0">
            <root>
                <mxCell id="0"/>
                <mxCell id="1" parent="0"/>
                <mxCell id="53" value="" style="rounded=0;whiteSpace=wrap;html=1;fontFamily=JetBrains Mono;fontSource=https%3A%2F%2Ffonts.googleapis.com%2Fcss%3Ffamily%3DJetBrains%2BMono;fontSize=7;fillColor=#FFFFFF;textOpacity=10;strokeColor=none;" parent="1" vertex="1">
                    <mxGeometry x="230" y="110" width="380" height="600" as="geometry"/>
                </mxCell>
                <mxCell id="43" value="" style="rounded=1;whiteSpace=wrap;html=1;arcSize=5;strokeWidth=2;fontFamily=JetBrains Mono;fontSource=https%3A%2F%2Ffonts.googleapis.com%2Fcss%3Ffamily%3DJetBrains%2BMono;fillColor=#CDD1E6;strokeColor=#cdd1e6;" parent="1" vertex="1">
                    <mxGeometry x="240" y="120" width="160" height="180" as="geometry"/>
                </mxCell>
                <mxCell id="44" value="workerA" style="text;html=1;align=left;verticalAlign=middle;whiteSpace=wrap;rounded=0;strokeWidth=2;fontFamily=JetBrains Mono;fontSource=https%3A%2F%2Ffonts.googleapis.com%2Fcss%3Ffamily%3DJetBrains%2BMono;fontSize=14;fontStyle=1;fontColor=default;" parent="1" vertex="1">
                    <mxGeometry x="250" y="130" width="60" height="20" as="geometry"/>
                </mxCell>
                <mxCell id="47" value="" style="rounded=1;whiteSpace=wrap;html=1;arcSize=5;strokeWidth=2;fontFamily=JetBrains Mono;fontSource=https%3A%2F%2Ffonts.googleapis.com%2Fcss%3Ffamily%3DJetBrains%2BMono;fillColor=#cdd1e6;strokeColor=#cdd1e6;" parent="1" vertex="1">
                    <mxGeometry x="440" y="120" width="160" height="180" as="geometry"/>
                </mxCell>
                <mxCell id="48" value="workerB" style="text;html=1;align=left;verticalAlign=middle;whiteSpace=wrap;rounded=0;strokeWidth=2;fontFamily=JetBrains Mono;fontSource=https%3A%2F%2Ffonts.googleapis.com%2Fcss%3Ffamily%3DJetBrains%2BMono;fontSize=14;fontStyle=1;fontColor=default;" parent="1" vertex="1">
                    <mxGeometry x="450" y="130" width="60" height="20" as="geometry"/>
                </mxCell>
                <mxCell id="82" value="vm1" style="rounded=1;whiteSpace=wrap;html=1;arcSize=5;strokeWidth=2;fontFamily=JetBrains Mono;fontSource=https%3A%2F%2Ffonts.googleapis.com%2Fcss%3Ffamily%3DJetBrains%2BMono;fillColor=#0064ff;strokeColor=#0064ff;fontStyle=1;fontColor=#f5f5fb;" parent="1" vertex="1">
                    <mxGeometry x="270" y="175" width="100" height="25" as="geometry"/>
                </mxCell>
                <mxCell id="116" value="vm2" style="rounded=1;whiteSpace=wrap;html=1;arcSize=5;strokeWidth=2;fontFamily=JetBrains Mono;fontSource=https%3A%2F%2Ffonts.googleapis.com%2Fcss%3Ffamily%3DJetBrains%2BMono;fillColor=#0064ff;strokeColor=#0064ff;fontStyle=1;fontColor=#f5f5fb;" parent="1" vertex="1">
                    <mxGeometry x="270" y="215" width="100" height="25" as="geometry"/>
                </mxCell>
                <mxCell id="117" value="vm3" style="rounded=1;whiteSpace=wrap;html=1;arcSize=5;strokeWidth=2;fontFamily=JetBrains Mono;fontSource=https%3A%2F%2Ffonts.googleapis.com%2Fcss%3Ffamily%3DJetBrains%2BMono;fillColor=#0064ff;strokeColor=#0064ff;fontStyle=1;fontColor=#f5f5fb;" parent="1" vertex="1">
                    <mxGeometry x="470" y="175" width="100" height="25" as="geometry"/>
                </mxCell>
                <mxCell id="118" value="" style="rounded=1;whiteSpace=wrap;html=1;arcSize=5;strokeWidth=2;fontFamily=JetBrains Mono;fontSource=https%3A%2F%2Ffonts.googleapis.com%2Fcss%3Ffamily%3DJetBrains%2BMono;fillColor=#cdd1e6;strokeColor=#cdd1e6;" parent="1" vertex="1">
                    <mxGeometry x="240" y="320" width="160" height="180" as="geometry"/>
                </mxCell>
                <mxCell id="119" value="workerA" style="text;html=1;align=left;verticalAlign=middle;whiteSpace=wrap;rounded=0;strokeWidth=2;fontFamily=JetBrains Mono;fontSource=https%3A%2F%2Ffonts.googleapis.com%2Fcss%3Ffamily%3DJetBrains%2BMono;fontSize=14;fontStyle=1;fontColor=default;" parent="1" vertex="1">
                    <mxGeometry x="250" y="330" width="60" height="20" as="geometry"/>
                </mxCell>
                <mxCell id="120" value="" style="rounded=1;whiteSpace=wrap;html=1;arcSize=5;strokeWidth=2;fontFamily=JetBrains Mono;fontSource=https%3A%2F%2Ffonts.googleapis.com%2Fcss%3Ffamily%3DJetBrains%2BMono;fillColor=#cdd1e6;strokeColor=#cdd1e6;" parent="1" vertex="1">
                    <mxGeometry x="440" y="320" width="160" height="180" as="geometry"/>
                </mxCell>
                <mxCell id="121" value="workerB" style="text;html=1;align=left;verticalAlign=middle;whiteSpace=wrap;rounded=0;strokeWidth=2;fontFamily=JetBrains Mono;fontSource=https%3A%2F%2Ffonts.googleapis.com%2Fcss%3Ffamily%3DJetBrains%2BMono;fontSize=14;fontStyle=1;fontColor=default;" parent="1" vertex="1">
                    <mxGeometry x="450" y="330" width="60" height="20" as="geometry"/>
                </mxCell>
                <mxCell id="127" style="edgeStyle=none;html=1;exitX=1;exitY=0.5;exitDx=0;exitDy=0;entryX=0;entryY=0.5;entryDx=0;entryDy=0;strokeColor=#0066FF;strokeWidth=2;" parent="1" source="122" target="125" edge="1">
                    <mxGeometry relative="1" as="geometry"/>
                </mxCell>
                <mxCell id="122" value="vm1" style="rounded=1;whiteSpace=wrap;html=1;arcSize=5;strokeWidth=2;fontFamily=JetBrains Mono;fontSource=https%3A%2F%2Ffonts.googleapis.com%2Fcss%3Ffamily%3DJetBrains%2BMono;fillColor=#0064ff;strokeColor=#0064ff;fontStyle=1;fontColor=#f5f5fb;" parent="1" vertex="1">
                    <mxGeometry x="270" y="375" width="100" height="25" as="geometry"/>
                </mxCell>
                <mxCell id="128" style="edgeStyle=none;html=1;exitX=1;exitY=0.5;exitDx=0;exitDy=0;entryX=0;entryY=0.5;entryDx=0;entryDy=0;strokeColor=#0066FF;strokeWidth=2;" parent="1" source="123" target="126" edge="1">
                    <mxGeometry relative="1" as="geometry"/>
                </mxCell>
                <mxCell id="123" value="vm2" style="rounded=1;whiteSpace=wrap;html=1;arcSize=5;strokeWidth=2;fontFamily=JetBrains Mono;fontSource=https%3A%2F%2Ffonts.googleapis.com%2Fcss%3Ffamily%3DJetBrains%2BMono;fillColor=#0064ff;strokeColor=#0064ff;fontStyle=1;fontColor=#f5f5fb;" parent="1" vertex="1">
                    <mxGeometry x="270" y="415" width="100" height="25" as="geometry"/>
                </mxCell>
                <mxCell id="124" value="vm3" style="rounded=1;whiteSpace=wrap;html=1;arcSize=5;strokeWidth=2;fontFamily=JetBrains Mono;fontSource=https%3A%2F%2Ffonts.googleapis.com%2Fcss%3Ffamily%3DJetBrains%2BMono;fillColor=#0064ff;strokeColor=#0064ff;fontStyle=1;fontColor=#f5f5fb;" parent="1" vertex="1">
                    <mxGeometry x="470" y="375" width="100" height="25" as="geometry"/>
                </mxCell>
                <mxCell id="125" value="vm1" style="rounded=1;whiteSpace=wrap;html=1;arcSize=5;strokeWidth=2;fontFamily=JetBrains Mono;fontSource=https%3A%2F%2Ffonts.googleapis.com%2Fcss%3Ffamily%3DJetBrains%2BMono;fillColor=#0064ff;fontStyle=1;fontColor=#f5f5fb;strokeColor=none;opacity=50;" parent="1" vertex="1">
                    <mxGeometry x="470" y="415" width="100" height="25" as="geometry"/>
                </mxCell>
                <mxCell id="126" value="vm2" style="rounded=1;whiteSpace=wrap;html=1;arcSize=5;strokeWidth=2;fontFamily=JetBrains Mono;fontSource=https%3A%2F%2Ffonts.googleapis.com%2Fcss%3Ffamily%3DJetBrains%2BMono;fillColor=#0064ff;fontStyle=1;fontColor=#f5f5fb;strokeColor=none;opacity=50;" parent="1" vertex="1">
                    <mxGeometry x="470" y="455" width="100" height="25" as="geometry"/>
                </mxCell>
                <mxCell id="129" value="👷‍♂️🚧" style="text;html=1;strokeColor=none;fillColor=none;align=center;verticalAlign=middle;whiteSpace=wrap;rounded=0;opacity=30;fontSize=24;" parent="1" vertex="1">
                    <mxGeometry x="310" y="320" width="60" height="30" as="geometry"/>
                </mxCell>
                <mxCell id="130" value="" style="rounded=1;whiteSpace=wrap;html=1;arcSize=5;strokeWidth=2;fontFamily=JetBrains Mono;fontSource=https%3A%2F%2Ffonts.googleapis.com%2Fcss%3Ffamily%3DJetBrains%2BMono;fillColor=#cdd1e6;strokeColor=#cdd1e6;" parent="1" vertex="1">
                    <mxGeometry x="240" y="520" width="160" height="180" as="geometry"/>
                </mxCell>
                <mxCell id="131" value="workerA" style="text;html=1;align=left;verticalAlign=middle;whiteSpace=wrap;rounded=0;strokeWidth=2;fontFamily=JetBrains Mono;fontSource=https%3A%2F%2Ffonts.googleapis.com%2Fcss%3Ffamily%3DJetBrains%2BMono;fontSize=14;fontStyle=1;fontColor=default;" parent="1" vertex="1">
                    <mxGeometry x="250" y="530" width="60" height="20" as="geometry"/>
                </mxCell>
                <mxCell id="132" value="" style="rounded=1;whiteSpace=wrap;html=1;arcSize=5;strokeWidth=2;fontFamily=JetBrains Mono;fontSource=https%3A%2F%2Ffonts.googleapis.com%2Fcss%3Ffamily%3DJetBrains%2BMono;fillColor=#cdd1e6;strokeColor=#cdd1e6;" parent="1" vertex="1">
                    <mxGeometry x="440" y="520" width="160" height="180" as="geometry"/>
                </mxCell>
                <mxCell id="133" value="workerB" style="text;html=1;align=left;verticalAlign=middle;whiteSpace=wrap;rounded=0;strokeWidth=2;fontFamily=JetBrains Mono;fontSource=https%3A%2F%2Ffonts.googleapis.com%2Fcss%3Ffamily%3DJetBrains%2BMono;fontSize=14;fontStyle=1;fontColor=default;" parent="1" vertex="1">
                    <mxGeometry x="450" y="530" width="60" height="20" as="geometry"/>
                </mxCell>
                <mxCell id="138" value="vm3" style="rounded=1;whiteSpace=wrap;html=1;arcSize=5;strokeWidth=2;fontFamily=JetBrains Mono;fontSource=https%3A%2F%2Ffonts.googleapis.com%2Fcss%3Ffamily%3DJetBrains%2BMono;fillColor=#0064ff;strokeColor=#0064ff;fontStyle=1;fontColor=#f5f5fb;" parent="1" vertex="1">
                    <mxGeometry x="470" y="575" width="100" height="25" as="geometry"/>
                </mxCell>
                <mxCell id="139" value="vm1" style="rounded=1;whiteSpace=wrap;html=1;arcSize=5;strokeWidth=2;fontFamily=JetBrains Mono;fontSource=https%3A%2F%2Ffonts.googleapis.com%2Fcss%3Ffamily%3DJetBrains%2BMono;fillColor=#0064ff;strokeColor=#0064ff;fontStyle=1;fontColor=#f5f5fb;" parent="1" vertex="1">
                    <mxGeometry x="470" y="615" width="100" height="25" as="geometry"/>
                </mxCell>
                <mxCell id="140" value="vm2" style="rounded=1;whiteSpace=wrap;html=1;arcSize=5;strokeWidth=2;fontFamily=JetBrains Mono;fontSource=https%3A%2F%2Ffonts.googleapis.com%2Fcss%3Ffamily%3DJetBrains%2BMono;fillColor=#0064ff;strokeColor=#0064ff;fontStyle=1;fontColor=#f5f5fb;" parent="1" vertex="1">
                    <mxGeometry x="470" y="655" width="100" height="25" as="geometry"/>
                </mxCell>
                <mxCell id="141" value="👷‍♂️🚧" style="text;html=1;strokeColor=none;fillColor=none;align=center;verticalAlign=middle;whiteSpace=wrap;rounded=0;opacity=30;fontSize=24;" parent="1" vertex="1">
                    <mxGeometry x="310" y="520" width="60" height="30" as="geometry"/>
                </mxCell>
            </root>
        </mxGraphModel>
    </diagram>
</mxfile>
